<?xml version="1.0" encoding="UTF-8" standalone="no"?>
<svg
   version="1.0"
   width="300.000000pt"
   height="300.000000pt"
   viewBox="0 0 300.000000 300.000000"
   preserveAspectRatio="xMidYMid meet"
   id="svg22"
   sodipodi:docname="deska.svg"
   inkscape:version="1.4 (86a8ad7, 2024-10-11)"
   xmlns:inkscape="http://www.inkscape.org/namespaces/inkscape"
   xmlns:sodipodi="http://sodipodi.sourceforge.net/DTD/sodipodi-0.dtd"
   xmlns="http://www.w3.org/2000/svg"
   xmlns:svg="http://www.w3.org/2000/svg">
  <defs
     id="defs22" />
  <sodipodi:namedview
     id="namedview22"
     pagecolor="#ffffff"
     bordercolor="#000000"
     borderopacity="0.25"
     inkscape:showpageshadow="2"
     inkscape:pageopacity="0.0"
     inkscape:pagecheckerboard="0"
     inkscape:deskcolor="#d1d1d1"
     inkscape:document-units="pt"
     inkscape:zoom="1.3664839"
     inkscape:cx="-11.342981"
     inkscape:cy="209.66219"
     inkscape:window-width="1280"
     inkscape:window-height="871"
     inkscape:window-x="2391"
     inkscape:window-y="129"
     inkscape:window-maximized="1"
     inkscape:current-layer="svg22" />
  <metadata
     id="metadata1">
Created by potrace 1.10, written by Peter Selinger 2001-2011
</metadata>
  <path
     d="m 117.4,1.4 c -4.7,2.1 -7.8,7.1 -7.8,12.5 0,6.8 2.7,10.2 9.9,12.6 1.8,0.6 1.6,0.8 -1.3,2 -4.2,1.8 -5.9,3.6 -7.8,8.1 -2.9,6.9 0.6,14.3 8,16.8 l 4,1.4 -3.2,0.7 c -3.7,0.8 -8.8,6.2 -9.7,10.4 -1.4,6.3 4.4,15.1 9.8,15.1 1.8,0 1.4,0.5 -1.7,2.3 -5.9,3.3 -8.1,6.9 -8,12.8 0,4 0.6,5.5 2.9,7.9 1.6,1.7 4,3.3 5.2,3.6 3.1,0.8 2.9,1.6 -1,3.5 -1.9,0.9 -4,3.1 -5.3,5.5 l -2,4 -1.6,-3.8 c -4.3,-10.1 -19.1,-10.2 -23.8,-0.1 -1.9,4 -2.6,4.1 -3.3,0.4 -0.9,-4.4 -6.1,-7.6 -12.4,-7.6 -4.6,0 -5.6,0.4 -8.7,3.4 -2,1.9 -3.6,4.3 -3.6,5.3 0,1 -0.4,1.8 -1,1.8 -0.5,0 -1,-0.7 -1,-1.5 0,-0.8 -1.4,-3 -3.1,-4.9 -6.6,-7.5 -18.2,-5.2 -22.3,4.4 l -1.4,3.3 -0.6,-3 c -1.1,-5.1 -7,-9.3 -12.8,-9.3 -9.7,0 -16.1,11.6 -11.4,20.8 2.1,4 4.7,5.4 10.5,5.5 6,0.1 10.7,-2.7 12.8,-7.5 l 1.7,-3.8 1.2,3.5 c 2.2,6.5 8.2,9.3 15.9,7.5 4.4,-1 9.4,-6 9.6,-9.5 0,-1.5 0.3,-1.2 1.1,1 2.4,7 8.5,10.3 15.9,8.6 4.9,-1.1 9.8,-5.7 10,-9.4 0,-1.8 0.3,-1.5 1.6,1.3 0.8,1.9 2.2,4.3 3.1,5.3 2.3,2.6 8.6,4 12.9,2.8 4.2,-1.2 9.3,-5.7 9.3,-8.3 0,-3 1.5,-2.1 2.9,1.7 1.7,4.7 5.2,6.9 11,6.9 9.4,0 15,-6.4 13.8,-15.6 -0.6,-4.4 -4.9,-9.8 -7.8,-9.8 -2.7,0 -3.2,-1.7 -0.6,-2.4 5.8,-1.4 10,-10.1 8.3,-17 -0.8,-3.3 -5,-7.4 -8.3,-8.2 l -2.6,-0.7 3.4,-1.6 c 6.9,-3.3 9.9,-12.3 6.4,-19.1 -1.6,-3.1 -6.1,-6 -9.2,-6 -0.9,0 0.3,-1 2.7,-2.3 5.1,-2.5 8,-7.2 8,-12.8 0,-4.8 -3.7,-10.1 -7.8,-11.4 -3.8,-1.1 -4.1,-2.1 -0.9,-2.9 5.3,-1.3 8.7,-6.3 8.7,-12.9 0,-9.3 -9.6,-15.2 -18.6,-11.3 z M 128,3.5 c 6.3,3.3 8,12.2 3.2,17.3 -5,5.4 -11.1,5.4 -16.3,0.2 -2.3,-2.2 -2.9,-3.8 -2.9,-7 0,-5.2 1.3,-7.6 5.3,-10 3.9,-2.4 6.8,-2.5 10.7,-0.5 z m 2.8,30 c 4.6,5 4.5,10.1 -0.3,15 -2.9,2.9 -4.3,3.5 -7.6,3.5 -3.3,0 -4.7,-0.6 -7.5,-3.4 -2.8,-2.8 -3.4,-4.1 -3.4,-7.8 0,-4.8 2,-7.9 6.5,-10.3 4.2,-2.2 8.4,-1.2 12.3,3 z m -0.2,26.9 c 2.8,2.8 3.4,4.2 3.4,7.6 0,5.8 -5,11 -10.5,11 -6.8,0 -11.5,-4.5 -11.5,-11 0,-6.6 4.5,-10.9 11.4,-11 3,0 4.5,0.7 7.2,3.4 z M 128,85.5 c 8.3,4.3 8,15.9 -0.6,20 C 119.9,109 112,103.6 112,95 c 0,-3.4 0.6,-4.8 3.4,-7.6 3.8,-3.8 7.7,-4.4 12.6,-1.9 z m -109.6,27 c 11.1,5.3 7,21.5 -5.5,21.5 -3.6,0 -9.4,-5.1 -10.4,-9.3 -1,-3.9 2.3,-9.8 6.5,-11.9 4.3,-2.2 5.3,-2.2 9.4,-0.3 z m 27,-0.1 c 4.5,1.9 6.6,5.2 6.6,10.4 0,3.5 -0.6,4.9 -2.9,7.2 -5.2,5.2 -11.3,5.2 -16.3,-0.2 -5,-5.4 -3.2,-14.4 3.7,-17.4 3.9,-1.7 4.9,-1.7 8.9,0 z m 30,1.4 c 5.7,5.2 5.7,12.1 0,17.1 -9.5,8.4 -23.2,-3 -16.7,-14 3.4,-5.7 11.9,-7.3 16.7,-3.1 z m 25.1,-1.2 c 3.5,1.6 6.5,6.5 6.5,10.4 0,5.4 -6.1,11 -11.9,11 -4.3,0 -10,-5.3 -10.7,-10 -0.6,-4.5 2.4,-9.6 6.9,-11.5 4.1,-1.8 5.2,-1.8 9.2,0.1 z m 27.4,-0.2 c 3.8,2 6.1,5.8 6.1,10.1 0,4.3 -2.3,8.1 -6.1,10.1 -3.8,1.9 -6.8,1.8 -10.7,-0.6 -7.2,-4.4 -7.3,-14 -0.3,-18.7 3.9,-2.7 7.1,-2.9 11,-0.9 z"
     id="path1"
     style="fill:#000000;stroke:none;stroke-width:0.1" />
  <path
     d="m 182.35323,1.6674033 c 4.7,2.1 7.8,7.0999997 7.8,12.4999997 0,6.8 -2.7,10.2 -9.9,12.6 -1.8,0.6 -1.6,0.8 1.3,2 4.2,1.8 5.9,3.6 7.8,8.1 2.9,6.9 -0.6,14.3 -8,16.8 l -4,1.4 3.2,0.7 c 3.7,0.8 8.8,6.2 9.7,10.4 1.4,6.3 -4.4,15.1 -9.8,15.1 -1.8,0 -1.4,0.5 1.7,2.3 5.9,3.3 8.1,6.9 8,12.8 0,3.999997 -0.6,5.499997 -2.9,7.899997 -1.6,1.7 -4,3.3 -5.2,3.6 -3.1,0.8 -2.9,1.6 1,3.5 1.9,0.9 4,3.1 5.3,5.5 l 2,4 1.6,-3.8 c 4.3,-10.1 19.1,-10.2 23.8,-0.1 1.9,4 2.6,4.1 3.3,0.4 0.9,-4.4 6.1,-7.6 12.4,-7.6 4.6,0 5.6,0.4 8.7,3.4 2,1.9 3.6,4.3 3.6,5.3 0,1 0.4,1.8 1,1.8 0.5,0 1,-0.7 1,-1.5 0,-0.8 1.4,-3 3.1,-4.9 6.6,-7.5 18.2,-5.2 22.3,4.4 l 1.4,3.3 0.6,-3 c 1.1,-5.1 7,-9.3 12.8,-9.3 9.7,0 16.1,11.6 11.4,20.8 -2.1,4 -4.7,5.4 -10.5,5.5 -6,0.1 -10.7,-2.7 -12.8,-7.5 l -1.7,-3.8 -1.2,3.5 c -2.2,6.5 -8.2,9.3 -15.9,7.5 -4.4,-1 -9.4,-6 -9.6,-9.5 0,-1.5 -0.3,-1.2 -1.1,1 -2.4,7 -8.5,10.3 -15.9,8.6 -4.9,-1.1 -9.8,-5.7 -10,-9.4 0,-1.8 -0.3,-1.5 -1.6,1.3 -0.8,1.9 -2.2,4.3 -3.1,5.3 -2.3,2.6 -8.6,4 -12.9,2.8 -4.2,-1.2 -9.3,-5.7 -9.3,-8.3 0,-3 -1.5,-2.1 -2.9,1.7 -1.7,4.7 -5.2,6.9 -11,6.9 -9.4,0 -15,-6.4 -13.8,-15.6 0.6,-4.4 4.9,-9.8 7.8,-9.8 2.7,0 3.2,-1.7 0.6,-2.4 -5.8,-1.4 -10,-10.099997 -8.3,-16.999997 0.8,-3.3 5,-7.4 8.3,-8.2 l 2.6,-0.7 -3.4,-1.6 c -6.9,-3.3 -9.9,-12.3 -6.4,-19.1 1.6,-3.1 6.1,-6 9.2,-6 0.9,0 -0.3,-1 -2.7,-2.3 -5.1,-2.5 -8,-7.2 -8,-12.8 0,-4.8 3.7,-10.1 7.8,-11.4 3.8,-1.1 4.1,-2.1 0.9,-2.9 -5.3,-1.3 -8.7,-6.3 -8.7,-12.9 0,-9.2999997 9.6,-15.1999997 18.6,-11.2999997 z m -10.6,2.1 c -6.3,3.3 -8,12.1999997 -3.2,17.2999997 5,5.4 11.1,5.4 16.3,0.2 2.3,-2.2 2.9,-3.8 2.9,-7 0,-5.2 -1.3,-7.5999997 -5.3,-9.9999997 -3.9,-2.4 -6.8,-2.5 -10.7,-0.5 z m -2.8,29.9999997 c -4.6,5 -4.5,10.1 0.3,15 2.9,2.9 4.3,3.5 7.6,3.5 3.3,0 4.7,-0.6 7.5,-3.4 2.8,-2.8 3.4,-4.1 3.4,-7.8 0,-4.8 -2,-7.9 -6.5,-10.3 -4.2,-2.2 -8.4,-1.2 -12.3,3 z m 0.2,26.9 c -2.8,2.8 -3.4,4.2 -3.4,7.6 0,5.8 5,11 10.5,11 6.8,0 11.5,-4.5 11.5,-11 0,-6.6 -4.5,-10.9 -11.4,-11 -3,0 -4.5,0.7 -7.2,3.4 z m 2.6,25.1 c -8.3,4.3 -8,15.899997 0.6,19.999997 7.5,3.5 15.4,-1.9 15.4,-10.499997 0,-3.4 -0.6,-4.8 -3.4,-7.6 -3.8,-3.8 -7.7,-4.4 -12.6,-1.9 z m 109.6,26.999997 c -11.1,5.3 -7,21.5 5.5,21.5 3.6,0 9.4,-5.1 10.4,-9.3 1,-3.9 -2.3,-9.8 -6.5,-11.9 -4.3,-2.2 -5.3,-2.2 -9.4,-0.3 z m -27,-0.1 c -4.5,1.9 -6.6,5.2 -6.6,10.4 0,3.5 0.6,4.9 2.9,7.2 5.2,5.2 11.3,5.2 16.3,-0.2 5,-5.4 3.2,-14.4 -3.7,-17.4 -3.9,-1.7 -4.9,-1.7 -8.9,0 z m -30,1.4 c -5.7,5.2 -5.7,12.1 0,17.1 9.5,8.4 23.2,-3 16.7,-14 -3.4,-5.7 -11.9,-7.3 -16.7,-3.1 z m -25.1,-1.2 c -3.5,1.6 -6.5,6.5 -6.5,10.4 0,5.4 6.1,11 11.9,11 4.3,0 10,-5.3 10.7,-10 0.6,-4.5 -2.4,-9.6 -6.9,-11.5 -4.1,-1.8 -5.2,-1.8 -9.2,0.1 z m -27.4,-0.2 c -3.8,2 -6.1,5.8 -6.1,10.1 0,4.3 2.3,8.1 6.1,10.1 3.8,1.9 6.8,1.8 10.7,-0.6 7.2,-4.4 7.3,-14 0.3,-18.7 -3.9,-2.7 -7.1,-2.9 -11,-0.9 z"
     id="path1-2"
     style="fill:#000000;stroke:none;stroke-width:0.1" />
  <path
     d="m 181.98067,298.37459 c 4.7,-2.1 7.8,-7.1 7.8,-12.5 0,-6.8 -2.7,-10.2 -9.9,-12.6 -1.8,-0.6 -1.6,-0.8 1.3,-2 4.2,-1.8 5.9,-3.6 7.8,-8.1 2.9,-6.9 -0.6,-14.3 -8,-16.8 l -4,-1.4 3.2,-0.7 c 3.7,-0.8 8.8,-6.2 9.7,-10.4 1.4,-6.3 -4.4,-15.1 -9.8,-15.1 -1.8,0 -1.4,-0.5 1.7,-2.3 5.9,-3.3 8.1,-6.9 8,-12.8 0,-4 -0.6,-5.5 -2.9,-7.9 -1.6,-1.7 -4,-3.3 -5.2,-3.6 -3.1,-0.8 -2.9,-1.6 1,-3.5 1.9,-0.9 4,-3.1 5.3,-5.5 l 2,-4 1.6,3.8 c 4.3,10.1 19.1,10.2 23.8,0.1 1.9,-4 2.6,-4.1 3.3,-0.4 0.9,4.4 6.1,7.6 12.4,7.6 4.6,0 5.6,-0.4 8.7,-3.4 2,-1.9 3.6,-4.3 3.6,-5.3 0,-1 0.4,-1.8 1,-1.8 0.5,0 1,0.7 1,1.5 0,0.8 1.4,3 3.1,4.9 6.6,7.5 18.2,5.2 22.3,-4.4 l 1.4,-3.3 0.6,3 c 1.1,5.1 7,9.3 12.8,9.3 9.7,0 16.1,-11.6 11.4,-20.8 -2.1,-4 -4.7,-5.4 -10.5,-5.5 -6,-0.1 -10.7,2.7 -12.8,7.5 l -1.7,3.8 -1.2,-3.5 c -2.2,-6.5 -8.2,-9.3 -15.9,-7.5 -4.4,1 -9.4,6 -9.6,9.5 0,1.5 -0.3,1.2 -1.1,-1 -2.4,-7 -8.5,-10.3 -15.9,-8.6 -4.9,1.1 -9.8,5.7 -10,9.4 0,1.8 -0.3,1.5 -1.6,-1.3 -0.8,-1.9 -2.2,-4.3 -3.1,-5.3 -2.3,-2.6 -8.6,-4 -12.9,-2.8 -4.2,1.2 -9.3,5.7 -9.3,8.3 0,3 -1.5,2.1 -2.9,-1.7 -1.7,-4.7 -5.2,-6.9 -11,-6.9 -9.4,0 -15,6.4 -13.8,15.6 0.6,4.4 4.9,9.8 7.8,9.8 2.7,0 3.2,1.7 0.6,2.4 -5.8,1.4 -10,10.1 -8.3,17 0.8,3.3 5,7.4 8.3,8.2 l 2.6,0.7 -3.4,1.6 c -6.9,3.3 -9.9,12.3 -6.4,19.1 1.6,3.1 6.1,6 9.2,6 0.9,0 -0.3,1 -2.7,2.3 -5.1,2.5 -8,7.2 -8,12.8 0,4.8 3.7,10.1 7.8,11.4 3.8,1.1 4.1,2.1 0.9,2.9 -5.3,1.3 -8.7,6.3 -8.7,12.9 0,9.3 9.6,15.2 18.6,11.3 z m -10.6,-2.1 c -6.3,-3.3 -8,-12.2 -3.2,-17.3 5,-5.4 11.1,-5.4 16.3,-0.2 2.3,2.2 2.9,3.8 2.9,7 0,5.2 -1.3,7.6 -5.3,10 -3.9,2.4 -6.8,2.5 -10.7,0.5 z m -2.8,-30 c -4.6,-5 -4.5,-10.1 0.3,-15 2.9,-2.9 4.3,-3.5 7.6,-3.5 3.3,0 4.7,0.6 7.5,3.4 2.8,2.8 3.4,4.1 3.4,7.8 0,4.8 -2,7.9 -6.5,10.3 -4.2,2.2 -8.4,1.2 -12.3,-3 z m 0.2,-26.9 c -2.8,-2.8 -3.4,-4.2 -3.4,-7.6 0,-5.8 5,-11 10.5,-11 6.8,0 11.5,4.5 11.5,11 0,6.6 -4.5,10.9 -11.4,11 -3,0 -4.5,-0.7 -7.2,-3.4 z m 2.6,-25.1 c -8.3,-4.3 -8,-15.9 0.6,-20 7.5,-3.5 15.4,1.9 15.4,10.5 0,3.4 -0.6,4.8 -3.4,7.6 -3.8,3.8 -7.7,4.4 -12.6,1.9 z m 109.6,-27 c -11.1,-5.3 -7,-21.5 5.5,-21.5 3.6,0 9.4,5.1 10.4,9.3 1,3.9 -2.3,9.8 -6.5,11.9 -4.3,2.2 -5.3,2.2 -9.4,0.3 z m -27,0.1 c -4.5,-1.9 -6.6,-5.2 -6.6,-10.4 0,-3.5 0.6,-4.9 2.9,-7.2 5.2,-5.2 11.3,-5.2 16.3,0.2 5,5.4 3.2,14.4 -3.7,17.4 -3.9,1.7 -4.9,1.7 -8.9,0 z m -30,-1.4 c -5.7,-5.2 -5.7,-12.1 0,-17.1 9.5,-8.4 23.2,3 16.7,14 -3.4,5.7 -11.9,7.3 -16.7,3.1 z m -25.1,1.2 c -3.5,-1.6 -6.5,-6.5 -6.5,-10.4 0,-5.4 6.1,-11 11.9,-11 4.3,0 10,5.3 10.7,10 0.6,4.5 -2.4,9.6 -6.9,11.5 -4.1,1.8 -5.2,1.8 -9.2,-0.1 z m -27.4,0.2 c -3.8,-2 -6.1,-5.8 -6.1,-10.1 0,-4.3 2.3,-8.1 6.1,-10.1 3.8,-1.9 6.8,-1.8 10.7,0.6 7.2,4.4 7.3,14 0.3,18.7 -3.9,2.7 -7.1,2.9 -11,0.9 z"
     id="path1-2-5"
     style="fill:#000000;stroke:none;stroke-width:0.1" />
  <path
     d="m 146,2.8 c -4.7,2.2 -6.1,4 -6.6,8.8 -0.6,6.1 0.9,9.3 5.6,11.7 2.6,1.3 4.7,1.6 8,1.1 5.2,-0.7 7,-1.9 7,-4.6 0,-1 0.4,-1.7 0.8,-1.4 0.4,0.2 0.5,-2 0.2,-5 -0.8,-6.8 -3.9,-10.4 -9.6,-11 -2.1,-0.2 -4.6,0 -5.4,0.4 z m 8.6,4.3 c 4.8,2.9 5,8.6 0.6,12.5 -3.4,3 -7.5,3.1 -10.2,0.2 -4.2,-4.5 -3.9,-10.2 0.7,-13 3.6,-2.3 4.9,-2.2 8.9,0.3 z"
     id="path3"
     style="fill:#000000;stroke:none;stroke-width:0.1" />
  <path
     d="m 143.3,30.6 c 0.3,0.4 -0.4,1.5 -1.6,2.4 -1.8,1.5 -2.2,2.9 -2.2,7.5 0,5.1 0.3,5.9 3.3,8.6 3.7,3.3 7.9,3.8 13.6,1.4 2.6,-1.1 3.6,-2.1 3.6,-3.8 0,-1.8 0.2,-1.9 1.1,-0.7 0.9,1.2 1,1.2 0.5,-0.3 -0.3,-1 -0.6,-3.7 -0.6,-5.9 0,-3 -0.7,-4.6 -2.9,-6.9 -2.6,-2.6 -3.6,-2.9 -9.2,-2.9 -3.4,0 -6,0.3 -5.6,0.6 z m 11.5,3.5 c 1.9,1.4 4.2,5.7 4.2,7.9 0,0.4 -1.3,2.2 -2.9,3.9 -3.7,3.9 -7.5,4.1 -11.3,0.4 -3.7,-3.5 -3.7,-7.6 0,-11.2 3,-3 6.6,-3.4 10,-1 z"
     id="path4"
     style="fill:#0000ff;stroke:#0000ff;stroke-width:0.1" />
  <path
     d="m 145,57.9 c -0.8,0.6 -1.7,0.8 -2,0.6 -0.7,-0.4 -2.4,1.7 -2.9,3.5 -3,10.7 1.6,17.4 11.7,16.9 5.8,-0.3 8,-2.4 8.8,-8.3 0.8,-5.7 -0.9,-10.2 -4.7,-12.1 -3.2,-1.7 -8.7,-1.9 -10.9,-0.6 z m 10.7,4.3 c 5.1,5.6 1.9,13.8 -5.3,13.8 -4.5,0 -8.4,-3.7 -8.4,-7.9 0,-6.8 9.2,-10.7 13.7,-5.9 z"
     id="path5"
     style="fill:#0000ff;stroke:#0000ff;stroke-width:0.1" />
  <path
     d="m 144,85.3 c 0,0.5 -0.5,0.5 -1.2,0.1 -0.6,-0.4 -0.8,-0.3 -0.4,0.4 0.3,0.6 -0.1,1.5 -1.1,2 -1.3,0.8 -1.7,2.4 -1.8,7.2 0,5.7 0.2,6.4 3,8.6 2.4,1.9 4.2,2.4 9.2,2.4 4.5,0 6.2,-0.4 6,-1.3 -0.1,-0.6 0.4,-1.1 1.1,-1 0.6,0.2 1.2,-0.6 1.2,-1.8 0,-1.1 0.4,-1.8 0.8,-1.5 0.4,0.2 0.5,-2 0.2,-5.1 -0.5,-4.6 -1.2,-6.1 -3.9,-8.5 -2.8,-2.5 -3.9,-2.9 -8.2,-2.6 -2.7,0.2 -4.9,0.7 -4.9,1.1 z m 12.1,4.8 c 3.4,3.6 3.5,4.7 1.2,8.8 -1.9,3.3 -6.3,5.4 -9.1,4.4 -7.4,-2.6 -8.4,-11.5 -1.7,-15.1 3.5,-2 6.6,-1.3 9.6,1.9 z"
     id="path6"
     style="fill:#0000ff;stroke:#0000ff;stroke-width:0.1" />
  <path
     d="m 148.9,111.4 c -0.3,0.3 -1.9,0.6 -3.7,0.8 -1.7,0.1 -2.9,0.4 -2.7,0.7 0.3,0.2 -0.3,1.3 -1.2,2.4 -1.3,1.3 -1.8,3.6 -1.8,7.3 0,4.5 0.4,5.8 2.7,8.1 2.3,2.3 3.8,2.8 8.5,3 6.2,0.2 9.3,-1.4 9.3,-4.9 0,-1.1 0.4,-1.7 0.8,-1.4 0.4,0.2 0.5,-2 0.2,-5 -0.4,-4 -1.3,-6.1 -3.1,-7.8 -2.3,-2.3 -7.9,-4.2 -9,-3.2 z m 4.1,4.1 c 0.7,0.8 1.6,1.2 2.1,1 1.2,-0.8 3.2,3.5 3.1,6.8 -0.2,6.7 -9.8,9.8 -14.1,4.7 -3,-3.6 -2.7,-7.6 0.8,-11.1 3.2,-3.2 6.2,-3.7 8.1,-1.4 z"
     id="path7"
     style="fill:#0000ff;stroke:#0000ff;stroke-width:0.1" />
  <path
     d="m 7.1,140.6 c -6.4,4.5 -5.8,15.4 1.1,19 4.9,2.5 9.6,1.8 13.4,-2 2.8,-2.8 3.4,-4.2 3.4,-7.6 0,-3.4 -0.6,-4.8 -3.4,-7.6 -2.8,-2.8 -4.1,-3.4 -7.8,-3.4 -2.4,0 -5.4,0.7 -6.7,1.6 z m 12.4,4 c 3.2,3.4 3.2,7.4 0,10.8 -3,3.3 -7.5,3.4 -10.8,0.3 -4.3,-4 -4.4,-7.9 -0.1,-12.1 2.5,-2.6 8.1,-2 10.9,1 z"
     id="path12"
     style="fill:#000000;stroke:none;stroke-width:0.1" />
  <path
     d="m 34.7,140.1 c -4,2.4 -5.9,10.2 -3.6,15.3 2.4,5.3 13.2,7.4 17.2,3.4 4.7,-4.7 5.1,-12.1 0.8,-16.7 -2.5,-2.7 -3.6,-3.1 -7.8,-3.1 -2.6,0 -5.6,0.5 -6.6,1.1 z m 11.8,4.4 c 1.5,1.4 2.5,3.6 2.5,5.2 0,3.9 -4.3,8.3 -8,8.3 -3.7,0 -8,-4.4 -8,-8.3 0,-3.6 4.3,-7.7 8.2,-7.7 1.7,0 3.9,1 5.3,2.5 z"
     id="path13"
     style="fill:#ff0000;stroke:#ff0000;stroke-width:0.1" />
  <path
     d="m 5.3926326,109.72015 c -4.98417564,2.99051 -7.351659,12.70965 -4.48575808,19.06447 2.99050548,6.60403 16.44777848,9.22073 21.43195448,4.23655 5.856406,-5.8564 6.354824,-15.07713 0.996835,-20.80893 -3.11511,-3.36432 -4.485758,-3.86274 -9.719142,-3.86274 -3.239714,0 -6.9778455,0.62302 -8.2238894,1.37065 z m 14.7033174,5.48259 c 1.869066,1.74447 3.11511,4.48576 3.11511,6.47943 0,4.85957 -5.357989,10.34217 -9.968351,10.34217 -4.6103622,0 -9.968351,-5.4826 -9.968351,-10.34217 0,-4.48576 5.3579888,-9.59454 10.217559,-9.59454 2.118275,0 4.859572,1.24605 6.604033,3.11511 z"
     id="path13-6"
     style="fill:#ff0000;stroke:#ff0000;stroke-width:0.124604" />
  <path
     d="m 169.2817,1.5134804 c -4.98418,2.99051 -7.35166,12.7096496 -4.48576,19.0644696 2.99051,6.60403 16.44778,9.22073 21.43196,4.23655 5.8564,-5.8564 6.35482,-15.0771296 0.99683,-20.8089296 -3.11511,-3.36432 -4.48576,-3.86274 -9.71914,-3.86274 -3.23971,0 -6.97785,0.62302 -8.22389,1.37065 z m 14.70332,5.48259 c 1.86906,1.74447 3.11511,4.4857596 3.11511,6.4794296 0,4.85957 -5.35799,10.34217 -9.96835,10.34217 -4.61037,0 -9.96835,-5.4826 -9.96835,-10.34217 0,-4.4857596 5.35798,-9.5945396 10.21755,-9.5945396 2.11828,0 4.85958,1.24605 6.60404,3.11511 z"
     id="path13-6-1"
     style="fill:#0000ff;stroke:#0000ff;stroke-width:0.124604" />
  <path
     d="m 278.17238,164.79324 c -4.98418,2.99051 -7.35166,12.70965 -4.48576,19.06447 2.99051,6.60403 16.44778,9.22073 21.43196,4.23655 5.8564,-5.8564 6.35482,-15.07713 0.99683,-20.80893 -3.11511,-3.36432 -4.48576,-3.86274 -9.71914,-3.86274 -3.23971,0 -6.97785,0.62302 -8.22389,1.37065 z m 14.70332,5.48259 c 1.86906,1.74447 3.11511,4.48576 3.11511,6.47943 0,4.85957 -5.35799,10.34217 -9.96835,10.34217 -4.61037,0 -9.96835,-5.4826 -9.96835,-10.34217 0,-4.48576 5.35798,-9.59454 10.21755,-9.59454 2.11828,0 4.85958,1.24605 6.60404,3.11511 z"
     id="path13-6-1-8"
     style="fill:#ffff00;stroke:#ffff00;stroke-width:0.124604" />
  <path
     d="M 6.964969,1.7373505 C 1.641463,4.9384621 -0.88720232,15.342074 2.1738136,22.144437 5.3679172,29.213558 19.741384,32.014531 25.06489,26.679345 31.32001,20.410501 31.85236,10.540408 26.129592,4.4049435 22.8024,0.80369297 21.338436,0.27017437 15.748754,0.27017437 c -3.460279,0 -7.4529084,0.6668983 -8.783785,1.46717613 z m 15.704344,5.8687044 c 1.996314,1.8673147 3.327191,4.8016681 3.327191,6.9357421 0,5.201806 -5.722769,11.07051 -10.647013,11.07051 -4.924243,0 -10.647012,-5.868704 -10.647012,-11.07051 0,-4.8016674 5.722769,-10.2702332 10.913188,-10.2702332 2.26249,0 5.190419,1.3337964 7.053646,3.3344911 z"
     id="red-home-1"
     style="fill:#ff0000;stroke:#ff0000;stroke-width:0.133234" />
  <path
     d="m 37.575128,1.7373505 c -5.323506,3.2011116 -7.85217,13.6047235 -4.791154,20.4070865 3.194102,7.069121 17.56757,9.870094 22.891076,4.534908 C 61.93017,20.410501 62.462521,10.540408 56.739752,4.4049435 53.41256,0.80369297 51.948596,0.27017437 46.358914,0.27017437 c -3.460279,0 -7.45291,0.6668983 -8.783786,1.46717613 z m 15.704345,5.8687044 c 1.996314,1.8673147 3.327191,4.8016681 3.327191,6.9357421 0,5.201806 -5.722769,11.07051 -10.647013,11.07051 -4.924243,0 -10.647013,-5.868704 -10.647013,-11.07051 0,-4.8016674 5.72277,-10.2702332 10.913189,-10.2702332 2.26249,0 5.190419,1.3337964 7.053646,3.3344911 z"
     id="red-home-2"
     style="fill:#ff0000;stroke:#ff0000;stroke-width:0.133234" />
  <path
     d="M 6.964968,32.41467 C 1.6414619,35.615781 -0.88720204,46.019393 2.1738139,52.821755 5.3679162,59.890877 19.741384,62.69185 25.06489,57.356664 31.32001,51.08782 31.85236,41.217726 26.129592,35.082262 22.8024,31.481013 21.338436,30.947493 15.748754,30.947493 c -3.460279,0 -7.4529095,0.666898 -8.783786,1.467177 z m 15.704345,5.868704 c 1.996314,1.867315 3.327191,4.801668 3.327191,6.935742 0,5.201806 -5.722769,11.07051 -10.647013,11.07051 -4.924243,0 -10.6470131,-5.868704 -10.6470131,-11.07051 0,-4.801668 5.7227701,-10.270232 10.9131891,-10.270232 2.26249,0 5.190419,1.333795 7.053646,3.33449 z"
     id="red-home-3"
     style="fill:#ff0000;stroke:#ff0000;stroke-width:0.133234" />
  <path
     d="m 37.575128,32.41467 c -5.323506,3.201111 -7.85217,13.604723 -4.791154,20.407085 3.194102,7.069122 17.56757,9.870095 22.891076,4.534909 6.25512,-6.268844 6.787471,-16.138938 1.064702,-22.274402 -3.327192,-3.601249 -4.791156,-4.134769 -10.380838,-4.134769 -3.460279,0 -7.45291,0.666898 -8.783786,1.467177 z m 15.704345,5.868704 c 1.996314,1.867315 3.327191,4.801668 3.327191,6.935742 0,5.201806 -5.722769,11.07051 -10.647013,11.07051 -4.924243,0 -10.647013,-5.868704 -10.647013,-11.07051 0,-4.801668 5.72277,-10.270232 10.913189,-10.270232 2.26249,0 5.190419,1.333795 7.053646,3.33449 z"
     id="red-home-4"
     style="fill:#ff0000;stroke:#ff0000;stroke-width:0.133234" />
  <path
     d="m 245.5807,2.5601987 c -5.32351,3.2011116 -7.85217,13.6047223 -4.79116,20.4070863 3.19411,7.06912 17.56757,9.870093 22.89108,4.534907 6.25512,-6.268844 6.78747,-16.138937 1.0647,-22.2744003 -3.32719,-3.6012505 -4.79115,-4.1347691 -10.38083,-4.1347691 -3.46028,0 -7.45292,0.6668983 -8.78379,1.4671761 z m 15.70435,5.8687045 c 1.99631,1.8673148 3.32718,4.8016668 3.32718,6.9357408 0,5.201806 -5.72277,11.07051 -10.647,11.07051 -4.92425,0 -10.64702,-5.868704 -10.64702,-11.07051 0,-4.801666 5.72277,-10.270232 10.91319,-10.270232 2.26249,0 5.19042,1.3337964 7.05365,3.3344912 z"
     id="blue-home-1"
     style="fill:#0000ff;stroke:#0000ff;stroke-width:0.133234" />
  <path
     d="m 276.19086,2.5601987 c -5.3235,3.2011116 -7.85217,13.6047223 -4.79115,20.4070863 3.1941,7.06912 17.56757,9.870093 22.89108,4.534907 6.25512,-6.268844 6.78747,-16.138937 1.0647,-22.2744003 -3.3272,-3.6012505 -4.79116,-4.1347691 -10.38084,-4.1347691 -3.46028,0 -7.45291,0.6668983 -8.78379,1.4671761 z m 15.70434,5.8687045 c 1.99632,1.8673148 3.3272,4.8016668 3.3272,6.9357408 0,5.201806 -5.72277,11.07051 -10.64701,11.07051 -4.92425,0 -10.64702,-5.868704 -10.64702,-11.07051 0,-4.801666 5.72277,-10.270232 10.91319,-10.270232 2.26249,0 5.19042,1.3337964 7.05364,3.3344912 z"
     id="blue-home-2"
     style="fill:#0000ff;stroke:#0000ff;stroke-width:0.133234" />
  <path
     d="m 245.5807,33.237517 c -5.32351,3.201111 -7.85217,13.604724 -4.79116,20.407085 3.19411,7.069122 17.56757,9.870095 22.89108,4.534909 6.25512,-6.268843 6.78747,-16.138938 1.0647,-22.274401 -3.32719,-3.60125 -4.79115,-4.13477 -10.38083,-4.13477 -3.46028,0 -7.45292,0.666899 -8.78379,1.467177 z m 15.70435,5.868704 c 1.99631,1.867315 3.32718,4.801668 3.32718,6.935742 0,5.201806 -5.72277,11.07051 -10.647,11.07051 -4.92425,0 -10.64702,-5.868704 -10.64702,-11.07051 0,-4.801667 5.72277,-10.270232 10.91319,-10.270232 2.26249,0 5.19042,1.333795 7.05365,3.33449 z"
     id="blue-home-3"
     style="fill:#0000ff;stroke:#0000ff;stroke-width:0.133234" />
  <path
     d="m 276.19086,33.237517 c -5.3235,3.201111 -7.85217,13.604724 -4.79115,20.407085 3.1941,7.069122 17.56757,9.870095 22.89108,4.534909 6.25512,-6.268843 6.78747,-16.138938 1.0647,-22.274401 -3.3272,-3.60125 -4.79116,-4.13477 -10.38084,-4.13477 -3.46028,0 -7.45291,0.666899 -8.78379,1.467177 z m 15.70434,5.868704 c 1.99632,1.867315 3.3272,4.801668 3.3272,6.935742 0,5.201806 -5.72277,11.07051 -10.64701,11.07051 -4.92425,0 -10.64702,-5.868704 -10.64702,-11.07051 0,-4.801667 5.72277,-10.270232 10.91319,-10.270232 2.26249,0 5.19042,1.333795 7.05364,3.33449 z"
     id="blue-home-4"
     style="fill:#0000ff;stroke:#0000ff;stroke-width:0.133234" />
  <path
     d="m 245.66592,240.26618 c -5.32351,3.20112 -7.85217,13.60473 -4.79116,20.40708 3.19411,7.06913 17.56757,9.87011 22.89108,4.53491 6.25512,-6.26884 6.78747,-16.13893 1.0647,-22.2744 -3.32719,-3.60125 -4.79115,-4.13476 -10.38083,-4.13476 -3.46028,0 -7.45292,0.6669 -8.78379,1.46717 z m 15.70435,5.86871 c 1.99631,1.86732 3.32718,4.80167 3.32718,6.93574 0,5.2018 -5.72277,11.07051 -10.647,11.07051 -4.92425,0 -10.64702,-5.86871 -10.64702,-11.07051 0,-4.80166 5.72277,-10.27023 10.91319,-10.27023 2.26249,0 5.19042,1.33379 7.05365,3.33449 z"
     id="yellow-home-1"
     style="fill:#ffff00;stroke:#ffff00;stroke-width:0.133234" />
  <path
     d="m 276.27608,240.26618 c -5.3235,3.20112 -7.85217,13.60473 -4.79115,20.40708 3.1941,7.06913 17.56757,9.87011 22.89108,4.53491 6.25512,-6.26884 6.78747,-16.13893 1.0647,-22.2744 -3.3272,-3.60125 -4.79116,-4.13476 -10.38084,-4.13476 -3.46028,0 -7.45291,0.6669 -8.78379,1.46717 z m 15.70434,5.86871 c 1.99632,1.86732 3.3272,4.80167 3.3272,6.93574 0,5.2018 -5.72277,11.07051 -10.64701,11.07051 -4.92425,0 -10.64702,-5.86871 -10.64702,-11.07051 0,-4.80166 5.72277,-10.27023 10.91319,-10.27023 2.26249,0 5.19042,1.33379 7.05364,3.33449 z"
     id="yellow-home-2"
     style="fill:#ffff00;stroke:#ffff00;stroke-width:0.133234" />
  <path
     d="m 245.66592,270.9435 c -5.32351,3.20112 -7.85217,13.60472 -4.79116,20.40709 3.19411,7.06911 17.56757,9.87009 22.89108,4.53491 6.25512,-6.26885 6.78747,-16.13895 1.0647,-22.2744 -3.32719,-3.60126 -4.79115,-4.13478 -10.38083,-4.13478 -3.46028,0 -7.45292,0.6669 -8.78379,1.46718 z m 15.70435,5.86871 c 1.99631,1.86731 3.32718,4.80166 3.32718,6.93574 0,5.20181 -5.72277,11.0705 -10.647,11.0705 -4.92425,0 -10.64702,-5.86869 -10.64702,-11.0705 0,-4.80167 5.72277,-10.27024 10.91319,-10.27024 2.26249,0 5.19042,1.33381 7.05365,3.3345 z"
     id="yellow-home-3"
     style="fill:#ffff00;stroke:#ffff00;stroke-width:0.133234" />
  <path
     d="m 276.27608,270.9435 c -5.3235,3.20112 -7.85217,13.60472 -4.79115,20.40709 3.1941,7.06911 17.56757,9.87009 22.89108,4.53491 6.25512,-6.26885 6.78747,-16.13895 1.0647,-22.2744 -3.3272,-3.60126 -4.79116,-4.13478 -10.38084,-4.13478 -3.46028,0 -7.45291,0.6669 -8.78379,1.46718 z m 15.70434,5.86871 c 1.99632,1.86731 3.3272,4.80166 3.3272,6.93574 0,5.20181 -5.72277,11.0705 -10.64701,11.0705 -4.92425,0 -10.64702,-5.86869 -10.64702,-11.0705 0,-4.80167 5.72277,-10.27024 10.91319,-10.27024 2.26249,0 5.19042,1.33381 7.05364,3.3345 z"
     id="yellow-home-4"
     style="fill:#ffff00;stroke:#ffff00;stroke-width:0.133234" />
  <path
     d="m 6.5489905,241.14197 c -5.3235041,3.20111 -7.8521684,13.60472 -4.7911536,20.4071 3.1941025,7.06909 17.5675631,9.87008 22.8910681,4.53489 6.255119,-6.26885 6.787467,-16.13894 1.064702,-22.27441 -3.327194,-3.60125 -4.791156,-4.13476 -10.380835,-4.13476 -3.460279,0 -7.4529056,0.66691 -8.7837815,1.46718 z m 15.7043365,5.8687 c 1.996315,1.86733 3.327191,4.80167 3.327191,6.93574 0,5.20181 -5.722767,11.07054 -10.647009,11.07054 -4.924242,0 -10.6470074,-5.86873 -10.6470074,-11.07054 0,-4.80166 5.7227654,-10.27021 10.9131834,-10.27021 2.262488,0 5.190415,1.33378 7.053642,3.33447 z"
     id="green-home-1"
     style="fill:#00ff00;stroke:#00ff00;stroke-width:0.133234" />
  <path
     d="m 37.159139,241.14197 c -5.323505,3.20111 -7.852169,13.60472 -4.791156,20.4071 3.194105,7.06909 17.567564,9.87008 22.891068,4.53489 6.255118,-6.26885 6.787468,-16.13894 1.0647,-22.27441 -3.327186,-3.60125 -4.791152,-4.13476 -10.38083,-4.13476 -3.460279,0 -7.452906,0.66691 -8.783782,1.46718 z m 15.704336,5.8687 c 1.996315,1.86733 3.327191,4.80167 3.327191,6.93574 0,5.20181 -5.722767,11.07054 -10.647007,11.07054 -4.924242,0 -10.647009,-5.86873 -10.647009,-11.07054 0,-4.80166 5.722767,-10.27021 10.913183,-10.27021 2.262489,0 5.190415,1.33378 7.053642,3.33447 z"
     id="green-home-2"
     style="fill:#00ff00;stroke:#00ff00;stroke-width:0.133234" />
  <path
     d="m 6.5489905,271.81929 c -5.3235041,3.20111 -7.8521684,13.60473 -4.7911536,20.40708 3.1941025,7.06912 17.5675631,9.8701 22.8910681,4.53489 6.255119,-6.26882 6.787467,-16.13892 1.064702,-22.27436 -3.327194,-3.60129 -4.791156,-4.13478 -10.380835,-4.13478 -3.460279,0 -7.4529056,0.66688 -8.7837815,1.46717 z m 15.7043365,5.8687 c 1.996315,1.8673 3.327191,4.80168 3.327191,6.93575 0,5.20179 -5.722767,11.07051 -10.647009,11.07051 -4.924242,0 -10.6470074,-5.86872 -10.6470074,-11.07051 0,-4.80166 5.7227654,-10.27022 10.9131834,-10.27022 2.262488,0 5.190415,1.33379 7.053642,3.33447 z"
     id="green-home-3"
     style="fill:#00ff00;stroke:#00ff00;stroke-width:0.133234" />
  <path
     d="m 37.159139,271.81929 c -5.323505,3.20111 -7.852169,13.60473 -4.791156,20.40708 3.194105,7.06912 17.567564,9.8701 22.891068,4.53489 6.255118,-6.26882 6.787468,-16.13892 1.0647,-22.27436 -3.327186,-3.60129 -4.791152,-4.13478 -10.38083,-4.13478 -3.460279,0 -7.452906,0.66688 -8.783782,1.46717 z m 15.704336,5.8687 c 1.996315,1.8673 3.327191,4.80168 3.327191,6.93575 0,5.20179 -5.722767,11.07051 -10.647007,11.07051 -4.924242,0 -10.647009,-5.86872 -10.647009,-11.07051 0,-4.80166 5.722767,-10.27022 10.913183,-10.27022 2.262489,0 5.190415,1.33379 7.053642,3.33447 z"
     id="green-home-4"
     style="fill:#00ff00;stroke:#00ff00;stroke-width:0.133234" />
  <path
     d="m 62.4,140.1 c -6.3,3.1 -7,13.2 -1.3,18.3 2.8,2.5 3.8,2.8 8.1,2.4 5.5,-0.6 8.3,-2.6 9.8,-7.4 1.5,-4.3 -0.1,-9.6 -3.7,-12.4 -2.8,-2.2 -9.3,-2.6 -12.9,-0.9 z m 9.7,2.9 c 1,0.6 2.5,2.3 3.3,3.8 1.2,2.3 1.2,3.2 -0.1,6.4 -1.2,3.1 -2.1,3.9 -5.1,4.4 -3.9,0.8 -5.7,0 -8.5,-3.8 C 57,147.5 65,139.3 72.1,143 Z"
     id="path14"
     style="fill:#ff0000;stroke:#ff0000;stroke-width:0.1" />
  <path
     d="m 88.1,141.7 c -3.9,3.6 -4.8,8.6 -2.4,13.3 3.4,6.6 11.9,8.1 17.5,3.2 2.7,-2.5 3.2,-3.6 3.2,-8.1 0.1,-4.7 -0.2,-5.6 -3.2,-8.2 -4.5,-4 -10.9,-4.1 -15.1,-0.2 z m 12,1.3 c 1,0.6 1.9,1.7 1.9,2.5 0,0.8 0.5,1.5 1,1.5 2.2,0 0.9,5.3 -1.9,8.1 -4.3,4.3 -9.6,3.8 -12.5,-1.2 -4.3,-7.2 3.9,-14.9 11.5,-10.9 z"
     id="path15"
     style="fill:#ff0000;stroke:#ff0000;stroke-width:0.1" />
  <path
     d="m 115,141.8 c -2.3,2.4 -3,3.9 -3,7.1 0,7.7 4.2,12.1 11.5,12.1 5.2,0 10.5,-5.3 10.5,-10.5 0,-7.1 -3.3,-10.7 -10.6,-11.3 -4.9,-0.4 -5.6,-0.2 -8.4,2.6 z m 12.7,2 c 1.2,0.9 2.4,3.3 2.8,5.2 1.4,7.7 -7.7,12.1 -13,6.4 -2.5,-2.7 -3,-5 -1.9,-9 1.1,-4.2 8.2,-5.7 12.1,-2.6 z"
     id="path16"
     style="fill:#ff0000;stroke:#ff0000;stroke-width:0.1" />
  <path
     d="m 170.03514,140.15787 c -4,2.4 -5.9,10.2 -3.6,15.3 2.4,5.3 13.2,7.4 17.2,3.4 4.7,-4.7 5.1,-12.1 0.8,-16.7 -2.5,-2.7 -3.6,-3.1 -7.8,-3.1 -2.6,0 -5.6,0.5 -6.6,1.1 z m 11.8,4.4 c 1.5,1.4 2.5,3.6 2.5,5.2 0,3.9 -4.3,8.3 -8,8.3 -3.7,0 -8,-4.4 -8,-8.3 0,-3.6 4.3,-7.7 8.2,-7.7 1.7,0 3.9,1 5.3,2.5 z"
     id="path13-5"
     style="fill:#ffff00;stroke:#ffff00;stroke-width:0.1" />
  <path
     d="m 197.73514,140.10313 c -6.3,3.1 -7,13.2 -1.3,18.3 2.8,2.5 3.8,2.8 8.1,2.4 5.5,-0.6 8.3,-2.6 9.8,-7.4 1.5,-4.3 -0.1,-9.6 -3.7,-12.4 -2.8,-2.2 -9.3,-2.6 -12.9,-0.9 z m 9.7,2.9 c 1,0.6 2.5,2.3 3.3,3.8 1.2,2.3 1.2,3.2 -0.1,6.4 -1.2,3.1 -2.1,3.9 -5.1,4.4 -3.9,0.8 -5.7,0 -8.5,-3.8 -4.7,-6.3 3.3,-14.5 10.4,-10.8 z"
     id="path14-3"
     style="fill:#ffff00;stroke:#ffff00;stroke-width:0.1" />
  <path
     d="m 223.43514,141.73639 c -3.9,3.6 -4.8,8.6 -2.4,13.3 3.4,6.6 11.9,8.1 17.5,3.2 2.7,-2.5 3.2,-3.6 3.2,-8.1 0.1,-4.7 -0.2,-5.6 -3.2,-8.2 -4.5,-4 -10.9,-4.1 -15.1,-0.2 z m 12,1.3 c 1,0.6 1.9,1.7 1.9,2.5 0,0.8 0.5,1.5 1,1.5 2.2,0 0.9,5.3 -1.9,8.1 -4.3,4.3 -9.6,3.8 -12.5,-1.2 -4.3,-7.2 3.9,-14.9 11.5,-10.9 z"
     id="path15-9"
     style="fill:#ffff00;stroke:#ffff00;stroke-width:0.1" />
  <path
     d="m 250.33514,141.77847 c -2.3,2.4 -3,3.9 -3,7.1 0,7.7 4.2,12.1 11.5,12.1 5.2,0 10.5,-5.3 10.5,-10.5 0,-7.1 -3.3,-10.7 -10.6,-11.3 -4.9,-0.4 -5.6,-0.2 -8.4,2.6 z m 12.7,2 c 1.2,0.9 2.4,3.3 2.8,5.2 1.4,7.7 -7.7,12.1 -13,6.4 -2.5,-2.7 -3,-5 -1.9,-9 1.1,-4.2 8.2,-5.7 12.1,-2.6 z"
     id="path16-2"
     style="fill:#ffff00;stroke:#ffff00;stroke-width:0.1" />
  <path
     d="m 7.3,166 c -4.5,2.7 -6.6,6.4 -6.6,11.6 0,7.6 7,14.1 14.1,13 4.4,-0.7 10.1,-5.1 11.4,-8.7 l 1,-2.9 2.2,4.2 c 2.6,5.3 8,8.3 13.1,7.4 4.2,-0.8 9.3,-5 11,-9 l 1.2,-2.9 1.2,3.6 c 3.6,10.7 20.4,10.9 24.2,0.2 1.3,-3.4 2.9,-3.8 2.9,-0.7 0.1,4.6 8.8,9.8 14.4,8.6 4.6,-1 8.6,-4.2 10.4,-8.3 l 1.5,-3.6 0.8,2.9 c 1.1,3.9 4.6,7.5 8.3,8.5 l 3.1,0.8 -3.6,1.5 c -3.9,1.7 -7.4,5.8 -8.4,10.1 -1.4,5.3 4.2,14.7 8.7,14.7 3.1,0 2.8,1.6 -0.6,2.8 -10.7,3.9 -10.7,20.7 0.1,24.3 l 3.6,1.2 -2.9,1.2 c -4,1.7 -8.2,6.8 -9,11 -0.9,5.1 2.1,10.5 7.3,13.1 4.2,2.1 4.6,3.4 1.2,3.4 -2.2,0 -7.6,6.5 -8.4,10.2 -2,9 7.5,17.3 16.9,14.7 7.7,-2.1 12,-12.3 8.2,-19.7 -1.7,-3.2 -6.1,-6.2 -9.3,-6.2 -1,0 0.1,-0.9 2.4,-2 10.6,-4.8 11.3,-19.4 1.1,-24 l -4,-1.8 3.7,-1.8 c 5.4,-2.5 7.7,-6.7 7.2,-13.1 -0.4,-6 -2.4,-8.8 -7.6,-11 l -3.3,-1.4 4,-2 c 6.6,-3.3 9,-11.2 5.6,-18.4 -1.4,-3 -4,-4.8 -9.4,-6.8 -1,-0.4 -0.7,-0.6 0.8,-0.6 1.2,-0.1 3.9,-1.6 5.8,-3.4 3.1,-2.8 3.7,-4.2 4.1,-8.3 1,-9.5 -4.5,-15.1 -13.9,-14.2 -5.7,0.6 -10.3,4.3 -11.7,9.3 l -0.8,3 -0.7,-3.1 c -0.4,-1.7 -2.1,-4.4 -3.7,-6 -2.6,-2.5 -3.8,-2.9 -8.9,-2.9 -4.8,0 -6.3,0.4 -8.5,2.5 -1.5,1.4 -3.3,3.8 -4,5.5 l -1.3,2.9 -1.5,-3.4 c -0.8,-1.9 -2.4,-4.3 -3.5,-5.4 -2.7,-2.4 -10.3,-3.2 -14.2,-1.6 -3.3,1.4 -7,5.8 -7,8.4 0,2.8 -1.6,1.7 -2.9,-2 -3.7,-10.3 -19.3,-9.7 -24.1,0.9 -1.1,2.3 -2,3.4 -2,2.4 0,-3.1 -2.9,-7.6 -6,-9.2 -4,-2.1 -9.9,-1.9 -13.7,0.5 z m 13.8,2.8 c 2.4,2.1 3.2,3.8 3.6,7.5 0.5,4.3 0.3,4.9 -3,8.2 -2.9,2.9 -4.2,3.5 -7.7,3.5 -5.5,0 -9.6,-3 -11.1,-7.9 -1,-3.4 -0.9,-4.3 1.1,-7.9 2.6,-4.6 5,-6 10.2,-6.1 2.8,-0.1 4.6,0.6 6.9,2.7 z m 27.5,0.6 c 9.2,9.2 -0.9,23 -12.9,17.5 -3.2,-1.5 -5.7,-6 -5.7,-10.4 0,-5.5 5.2,-10.5 11,-10.5 3.4,0 4.8,0.6 7.6,3.4 z m 25.3,-1.9 c 2.8,1.4 6.1,6.8 6.1,10 0,2.6 -2.7,7.1 -5.4,8.9 -3.9,2.5 -9.9,2.1 -13.5,-1 -10.2,-8.5 0.9,-24.1 12.8,-17.9 z M 102,168 c 8.9,6.4 4.6,20 -6.4,20 -8,0 -12.9,-6.6 -10.7,-14.1 C 87,166.8 96,163.7 102,168 Z m 28.6,1.4 c 4.2,4.2 4.7,9.7 1.2,14.1 -4.6,5.8 -11.7,6.5 -16.7,1.4 -5.1,-5 -4.4,-12.1 1.4,-16.7 4.4,-3.5 9.9,-3 14.1,1.2 z m -2.6,25.1 c 5.8,3 7.7,9.4 4.5,15.5 -1.7,3.2 -6.1,6 -9.5,6 -2.9,0 -7.6,-2.6 -9.4,-5.2 -2.3,-3.3 -2,-10 0.5,-13.2 3.6,-4.6 8.8,-5.8 13.9,-3.1 z m -0.4,27.1 c 11.1,5.3 6.8,21.4 -5.7,21.4 -4.8,0 -9.9,-5.6 -9.9,-10.9 0,-5 2.3,-8.9 6.5,-10.7 4,-1.7 5,-1.7 9.1,0.2 z m 3.3,29.9 c 4.5,5.1 4.4,10.4 -0.3,15.1 -4.7,4.7 -10,4.8 -15.1,0.3 -3,-2.6 -3.5,-3.8 -3.5,-7.3 0,-7.2 4.2,-11.5 11.1,-11.6 4.1,0 5.1,0.4 7.8,3.5 z m 0.3,27.4 c 5,5.6 3.4,13.2 -3.4,17.1 -3.6,2 -4.5,2.1 -7.9,1.1 -4.9,-1.5 -7.9,-5.6 -7.9,-11.1 0,-3.5 0.6,-4.8 3.5,-7.7 3.3,-3.3 3.9,-3.5 8.2,-3 3.7,0.4 5.4,1.2 7.5,3.6 z"
     id="path17"
     style="fill:#000000;stroke:none;stroke-width:0.1" />
  <path
     d="m 142.4,169.4 c -3.9,3.9 -4.5,8.9 -1.7,13.6 3.4,5.8 12.1,6.9 17.2,2.1 2.7,-2.5 3.1,-3.6 3.1,-7.8 -0.1,-10.6 -11.2,-15.3 -18.6,-7.9 z m 12.7,1.7 c 3.4,3.4 4.1,5.7 2.7,8.6 -1.9,3.8 -6.1,6.7 -8.7,5.8 -3.7,-1.2 -7.1,-5 -7.1,-8.1 0,-3.4 0.5,-4.2 4.3,-7.1 3,-2.3 5.9,-2.1 8.8,0.8 z"
     id="path18"
     style="fill:#00ff00;stroke:#00ff00;stroke-width:0.1" />
  <path
     d="m 145.5,193.9 c -8.6,3.7 -8.4,17.2 0.3,20.8 10.9,4.5 20.4,-8.9 12.5,-17.7 -3,-3.3 -9,-4.8 -12.8,-3.1 z m 9.7,4.1 c 1.4,1.1 2.8,3.2 3.1,4.7 0.6,3.1 -1.1,7.3 -2.9,7.3 -0.6,0 -1.4,0.7 -1.8,1.5 -1.7,4.6 -11.6,-1.6 -11.6,-7.2 0.1,-3.1 2.1,-6.3 3.9,-6.3 0.6,0 1.1,-0.5 1.1,-1 0,-1.7 5.6,-1.1 8.2,1 z"
     id="path19"
     style="fill:#00ff00;stroke:#00ff00;stroke-width:0.1" />
  <path
     d="m 145.3,221.5 c -1.7,0.7 -3.9,2.7 -4.7,4.4 -4.1,7.8 0,15.9 8.7,16.8 4.3,0.5 4.9,0.3 8.2,-3 2.9,-2.9 3.5,-4.2 3.5,-7.9 0,-5.2 -2.1,-8.5 -6.6,-10.4 -4.1,-1.7 -5,-1.7 -9.1,0.1 z m 8.8,3.2 c 3.5,2.1 5.3,6.6 3.8,9.6 -4.2,8.2 -14.2,7.1 -15.6,-1.8 -0.6,-3.5 -0.3,-4.1 2.8,-6.7 3.9,-3.3 5.1,-3.4 9,-1.1 z"
     id="path20"
     style="fill:#00ff00;stroke:#00ff00;stroke-width:0.1" />
  <path
     d="m 144.4,249.1 c -3,1.5 -5.4,6.1 -5.4,10.4 0,5.2 5.3,10.5 10.4,10.5 4.4,0 9.1,-2.2 10.6,-4.9 0.5,-1.1 1,-4.1 1,-6.6 0,-4 -0.5,-5.2 -3.1,-7.6 -2.4,-2.3 -4,-2.9 -7.3,-2.8 -2.2,0 -5,0.5 -6.2,1 z m 10.6,3.2 c 4.6,3.7 4.3,11.2 -0.6,13.8 -3.7,1.9 -7.1,1.3 -9.9,-1.8 -3,-3.4 -3.1,-6.6 -0.4,-10.4 1.6,-2.3 2.8,-2.9 5.7,-2.9 2,0 4.4,0.6 5.2,1.3 z"
     id="path21"
     style="fill:#00ff00;stroke:#00ff00;stroke-width:0.1" />
  <path
     d="m 142.4,278.4 c -5.9,5.9 -4.1,14.9 3.7,18 7.9,3.2 14.9,-1.6 14.9,-10.1 0,-3.8 -0.5,-5 -3.4,-7.9 -2.8,-2.8 -4.2,-3.4 -7.6,-3.4 -3.4,0 -4.8,0.6 -7.6,3.4 z m 11.8,1 c 3.2,2.4 4.7,6.5 3.6,9.7 -0.5,1.6 -1.4,2.9 -2,2.9 -0.5,0 -1.6,0.7 -2.4,1.5 -0.9,0.8 -2.5,1.5 -3.6,1.5 -2.8,0 -7.8,-5.6 -7.8,-8.9 0.1,-2.9 2.1,-6.1 3.9,-6.1 0.6,0 1.1,-0.5 1.1,-1 0,-1.4 5.2,-1.2 7.2,0.4 z"
     id="path22"
     style="fill:#000000;stroke:none;stroke-width:0.1" />
  <path
     d="m 277.60084,143.06301 c -5.9,5.9 -4.1,14.9 3.7,18 7.9,3.2 14.9,-1.6 14.9,-10.1 0,-3.8 -0.5,-5 -3.4,-7.9 -2.8,-2.8 -4.2,-3.4 -7.6,-3.4 -3.4,0 -4.8,0.6 -7.6,3.4 z m 11.8,1 c 3.2,2.4 4.7,6.5 3.6,9.7 -0.5,1.6 -1.4,2.9 -2,2.9 -0.5,0 -1.6,0.7 -2.4,1.5 -0.9,0.8 -2.5,1.5 -3.6,1.5 -2.8,0 -7.8,-5.6 -7.8,-8.9 0.1,-2.9 2.1,-6.1 3.9,-6.1 0.6,0 1.1,-0.5 1.1,-1 0,-1.4 5.2,-1.2 7.2,0.4 z"
     id="path22-4"
     style="fill:#000000;stroke:none;stroke-width:0.1" />
  <path
     d="m 114.65493,273.55004 c -4.98418,2.99051 -7.35166,12.70965 -4.48576,19.06447 2.99051,6.60403 16.44778,9.22073 21.43196,4.23655 5.8564,-5.8564 6.35482,-15.07713 0.99683,-20.80893 -3.11511,-3.36432 -4.48576,-3.86274 -9.71914,-3.86274 -3.23971,0 -6.97785,0.62302 -8.22389,1.37065 z m 14.70332,5.48259 c 1.86906,1.74447 3.11511,4.48576 3.11511,6.47943 0,4.85957 -5.35799,10.34217 -9.96835,10.34217 -4.61037,0 -9.96835,-5.4826 -9.96835,-10.34217 0,-4.48576 5.35798,-9.59454 10.21755,-9.59454 2.11828,0 4.85958,1.24605 6.60404,3.11511 z"
     id="path13-6-1-8-2"
     style="fill:#00ff00;stroke:#00ff00;stroke-width:0.124604" />
</svg>
